<?xml version="1.0" encoding="UTF-8" standalone="no"?>
<svg
   xmlns:dc="http://purl.org/dc/elements/1.1/"
   xmlns:cc="http://creativecommons.org/ns#"
   xmlns:rdf="http://www.w3.org/1999/02/22-rdf-syntax-ns#"
   xmlns:svg="http://www.w3.org/2000/svg"
   xmlns="http://www.w3.org/2000/svg"
   xmlns:sodipodi="http://sodipodi.sourceforge.net/DTD/sodipodi-0.dtd"
   xmlns:inkscape="http://www.inkscape.org/namespaces/inkscape"
   sodipodi:docname="Cs.svg"
   inkscape:version="1.0 (4035a4fb49, 2020-05-01)"
   id="svg951"
   version="1.1"
   viewBox="0 0 171.63605 102.61207"
   height="102.61207mm"
   width="171.63605mm">
  <defs
     id="defs945" />
  <sodipodi:namedview
     inkscape:window-maximized="1"
     inkscape:window-y="-9"
     inkscape:window-x="-9"
     inkscape:window-height="1051"
     inkscape:window-width="1920"
     inkscape:guide-bbox="true"
     showguides="true"
     showgrid="false"
     inkscape:document-rotation="0"
     inkscape:current-layer="layer1"
     inkscape:document-units="mm"
     inkscape:cy="143.25998"
     inkscape:cx="328.42955"
     inkscape:zoom="1.4"
     inkscape:pageshadow="2"
     inkscape:pageopacity="0.0"
     borderopacity="1.0"
     bordercolor="#666666"
     pagecolor="#ffffff"
     id="base">
    <sodipodi:guide
       id="guide1516"
       orientation="1,0"
       position="51.253989,92.55763" />
  </sodipodi:namedview>
  <metadata
     id="metadata948">
    <rdf:RDF>
      <cc:Work
         rdf:about="">
        <dc:format>image/svg+xml</dc:format>
        <dc:type
           rdf:resource="http://purl.org/dc/dcmitype/StillImage" />
        <dc:title />
      </cc:Work>
    </rdf:RDF>
  </metadata>
  <g
     transform="translate(-38.515357,-82.360741)"
     id="layer1"
     inkscape:groupmode="layer"
     inkscape:label="Layer 1">
    <path
       sodipodi:nodetypes="ccccccccccccc"
       d="m 339.48219,318.84375 h -0.004 3.3e-4 c -102.91881,0.002 -186.34992,83.43472 -186.34961,186.35352 -3.1e-4,102.92032 83.43318,186.35381 186.35351,186.35351 51.2784,1.5e-4 97.71944,-20.71105 131.41416,-54.22464 l -46.16913,-46.16395 c -21.94439,21.64228 -52.04328,34.84917 -84.93862,34.84953 -66.7908,-1.4e-4 -120.9354,-54.14475 -120.93554,-120.93555 -9.4e-4,-66.79156 54.14398,-120.93736 120.93554,-120.9375 33.43071,7e-5 63.69314,13.56488 85.5836,35.49066 l 45.68556,-46.4004 c -17.85303,-17.79551 -39.28174,-31.97291 -63.08248,-41.38535"
       transform="scale(0.26458333)"
       style="fill:#ffcf76;fill-opacity:0;fill-rule:evenodd;stroke:#000000;stroke-width:15.1181;stroke-linecap:round;stroke-linejoin:round;stroke-miterlimit:4;stroke-dasharray:none"
       id="path1514" />
    <path
       sodipodi:nodetypes="cccccccccccccccccccccccccccccccccc"
       d="m 184.0744,98.462723 h -4.15796 v 12.170827 h -15.875 V 98.462723 h -15.875 v 12.170827 h -11.64167 v 15.875 h 11.64167 v 15.34584 h -11.64167 v 15.875 h 11.64167 v 12.35996 h 15.875 v -12.35996 h 15.875 v 12.35996 h 15.875 v -12.35996 h 12.35997 v -15.875 h -12.35997 v -15.34584 h 12.35997 v -15.875 H 195.79144 V 98.462723 m -31.75,28.045827 h 15.875 v 15.34584 h -15.875 z"
       style="fill:#ffcf76;fill-opacity:0;fill-rule:evenodd;stroke:#000000;stroke-width:4;stroke-linecap:round;stroke-linejoin:round;stroke-miterlimit:4;stroke-dasharray:none"
       id="rect1568" />
  </g>
</svg>
