<?xml version="1.0" encoding="UTF-8" standalone="no"?>
<svg
   xmlns:dc="http://purl.org/dc/elements/1.1/"
   xmlns:cc="http://creativecommons.org/ns#"
   xmlns:rdf="http://www.w3.org/1999/02/22-rdf-syntax-ns#"
   xmlns:svg="http://www.w3.org/2000/svg"
   xmlns="http://www.w3.org/2000/svg"
   xmlns:sodipodi="http://sodipodi.sourceforge.net/DTD/sodipodi-0.dtd"
   xmlns:inkscape="http://www.inkscape.org/namespaces/inkscape"
   sodipodi:docname="javascript.svg"
   inkscape:version="1.0 (4035a4fb49, 2020-05-01)"
   id="svg1615"
   version="1.1"
   viewBox="0 0 81.298119 81.298119"
   height="81.298119mm"
   width="81.298119mm">
  <defs
     id="defs1609">
    <rect
       id="rect3415"
       height="57.452381"
       width="46.869049"
       y="145.8988"
       x="112.6369" />
  </defs>
  <sodipodi:namedview
     inkscape:window-maximized="1"
     inkscape:window-y="-9"
     inkscape:window-x="-9"
     inkscape:window-height="1051"
     inkscape:window-width="1920"
     showgrid="false"
     inkscape:document-rotation="0"
     inkscape:current-layer="layer1"
     inkscape:document-units="mm"
     inkscape:cy="128.45576"
     inkscape:cx="84.643347"
     inkscape:zoom="1.4"
     inkscape:pageshadow="2"
     inkscape:pageopacity="0.0"
     borderopacity="1.0"
     bordercolor="#666666"
     pagecolor="#ffffff"
     id="base" />
  <metadata
     id="metadata1612">
    <rdf:RDF>
      <cc:Work
         rdf:about="">
        <dc:format>image/svg+xml</dc:format>
        <dc:type
           rdf:resource="http://purl.org/dc/dcmitype/StillImage" />
        <dc:title />
      </cc:Work>
    </rdf:RDF>
  </metadata>
  <g
     transform="translate(-62.85247,-98.94917)"
     id="layer1"
     inkscape:groupmode="layer"
     inkscape:label="Layer 1">
    <path
       sodipodi:nodetypes="ccccc"
       d="m 142.65059,100.44917 v 78.29812 H 64.35247 v -78.29812 h 55.84396"
       style="fill:#ffcf76;fill-opacity:0;fill-rule:evenodd;stroke:#000000;stroke-width:3;stroke-linecap:round;stroke-linejoin:round;stroke-miterlimit:4;stroke-dasharray:none"
       id="rect3411" />
    <g
       style="font-style:normal;font-weight:normal;font-size:25.4px;line-height:1.25;font-family:sans-serif;letter-spacing:0px;word-spacing:0px;white-space:pre;shape-inside:url(#rect3415);fill:#000000;fill-opacity:1;stroke:none"
       id="text3413"
       aria-label="JS"
       transform="matrix(1.562588,0,0,1.5763633,-75.857627,-99.973921)">
      <path
         id="path3420"
         style="font-size:25.4px;fill:#000000;fill-opacity:0;stroke:#000000;stroke-width:1.27432;stroke-linecap:round;stroke-linejoin:round;stroke-miterlimit:4;stroke-dasharray:none;stroke-opacity:1"
         d="m 117.63486,158.85199 v 8.22965 c 0,2.23242 -0.42581,3.85299 -1.27744,4.86172 -0.84336,1.00872 -2.20348,1.51308 -4.08037,1.51308 h -0.95498 v -2.10839 h 0.78135 c 1.10794,0 1.88929,-0.31006 2.34404,-0.93018 0.45475,-0.62012 0.68213,-1.7322 0.68213,-3.33623 v -17.22685 h 2.50527"
         sodipodi:nodetypes="cscsccssscc" />
      <path
         id="path3422"
         style="font-size:25.4px;fill:#000000;fill-opacity:0.0110294;stroke:#000000;stroke-width:1.27432;stroke-linecap:round;stroke-linejoin:round;stroke-miterlimit:4;stroke-dasharray:none;stroke-opacity:1"
         d="m 133.7207,150.4625 v 2.44326 c -0.95085,-0.45475 -1.84795,-0.79375 -2.69131,-1.01699 -0.84335,-0.22324 -1.65777,-0.33486 -2.44326,-0.33486 -1.36425,0 -2.41845,0.26458 -3.1626,0.79375 -0.73587,0.52917 -1.1038,1.28157 -1.1038,2.25722 0,0.81855 0.24391,1.43867 0.73173,1.86035 0.4961,0.41341 1.43041,0.74828 2.80293,1.00459 l 1.51309,0.31006 c 1.86862,0.35553 3.24528,0.98392 4.12998,1.88516 0.89297,0.89297 1.33945,2.09186 1.33945,3.59668 0,1.79421 -0.60358,3.15433 -1.81074,4.08037 -1.19889,0.92604 -2.96003,1.38906 -5.2834,1.38906 -0.87643,0 -1.81074,-0.0992 -2.80293,-0.29765 -0.98392,-0.19844 -2.00505,-0.49196 -3.06338,-0.88057 v -2.57969 c 1.01699,0.57051 2.01332,1.00046 2.98897,1.28985 0.97565,0.28939 1.93477,0.43408 2.87734,0.43408 1.43041,0 2.53422,-0.28112 3.31143,-0.84336 0.77721,-0.56224 1.16582,-1.36426 1.16582,-2.40606 0,-0.9095 -0.28112,-1.62057 -0.84336,-2.1332 -0.55397,-0.51263 -1.46761,-0.8971 -2.74092,-1.15342 l -1.52549,-0.29765 c -1.86862,-0.37207 -3.22047,-0.95498 -4.05556,-1.74873 -0.83509,-0.79375 -1.25264,-1.89756 -1.25264,-3.31143 0,-1.63711 0.57464,-2.92695 1.72393,-3.86953 1.15755,-0.94258 2.74918,-1.41387 4.7749,-1.41387"
         sodipodi:nodetypes="ccsscsccccscscccsssscccsscc" />
    </g>
  </g>
</svg>
